<?xml version="1.0" encoding="utf-8"?>
<!-- Generator: Adobe Illustrator 19.1.0, SVG Export Plug-In . SVG Version: 6.00 Build 0)  -->
<svg version="1.1" id="Layer_1" xmlns="http://www.w3.org/2000/svg" xmlns:xlink="http://www.w3.org/1999/xlink" x="0px" y="0px"
	 viewBox="0 0 504.7 142" style="enable-background:new 0 0 504.7 142;" xml:space="preserve">
<style type="text/css">
	.st0{fill:#FFFFFF;}
	.st1{fill:#A0D315;}
	.st2{fill:#01A0C6;}
</style>
<g>
	<path class="st0" d="M175.8,101.5c-3.4,0-6.1-0.4-8-1.2c-1.9-0.8-3.3-1.8-4.3-2.9c-1-1.1-1.5-2.2-1.8-3.3c-0.2-1.1-0.3-2-0.3-2.6
		V48.1c0-0.6,0.1-1.5,0.3-2.6c0.2-1.1,0.8-2.2,1.8-3.3c1-1.1,2.4-2.1,4.3-2.9c1.9-0.8,4.6-1.2,8-1.2c3.4,0,6.1,0.4,8,1.2
		c1.9,0.8,3.3,1.8,4.2,2.9c0.9,1.1,1.5,2.2,1.7,3.3c0.2,1.2,0.3,2,0.3,2.6v1.7h-6.4v-0.4c0-0.6-0.1-1.2-0.3-1.8
		c-0.2-0.7-0.6-1.3-1.2-1.9c-0.6-0.6-1.4-1-2.5-1.5c-1-0.4-2.4-0.6-4.2-0.6c-1.6,0-3,0.2-4,0.6c-1,0.4-1.8,0.9-2.4,1.6
		c-0.6,0.6-1,1.3-1.1,2c-0.2,0.6-0.2,1.3-0.2,1.8v40.5c0,0.6,0.1,1.2,0.2,1.8c0.2,0.7,0.5,1.4,1.1,2c0.6,0.6,1.4,1.1,2.4,1.5
		c1,0.4,2.3,0.6,4,0.6c1.7,0,3.1-0.2,4.2-0.6c1-0.4,1.9-0.9,2.5-1.5c0.6-0.6,1-1.2,1.2-1.9c0.2-0.7,0.3-1.2,0.3-1.7v-0.4h6.4v1.7
		c0,0.7-0.1,1.6-0.3,2.7c-0.2,1.1-0.8,2.2-1.7,3.2c-0.9,1.1-2.4,2.1-4.2,2.9C181.9,101.1,179.2,101.5,175.8,101.5"/>
	<rect x="200.3" y="38.9" class="st0" width="6.3" height="62"/>
	<path class="st0" d="M231.3,101.6c-3.4,0-6.1-0.4-8-1.2c-1.9-0.8-3.3-1.8-4.2-2.9c-0.9-1.1-1.5-2.2-1.7-3.3c-0.2-1.1-0.3-2-0.3-2.6
		V65.8c0-0.6,0.1-1.5,0.3-2.6c0.2-1.1,0.8-2.2,1.7-3.3c0.9-1.1,2.4-2.1,4.2-2.9c1.9-0.8,4.6-1.2,8-1.2c3.4,0,6.1,0.4,8,1.2
		c1.9,0.8,3.3,1.8,4.2,2.9c0.9,1.1,1.5,2.2,1.7,3.2c0.2,1.1,0.3,2,0.3,2.7v25.7c0,0.7-0.1,1.6-0.3,2.7c-0.2,1.1-0.8,2.2-1.7,3.2
		c-0.9,1.1-2.4,2.1-4.2,2.9C237.4,101.2,234.7,101.6,231.3,101.6 M231,61.3c-1.6,0-3,0.2-4,0.6c-1,0.4-1.8,0.9-2.4,1.5
		c-0.6,0.6-1,1.3-1.1,2c-0.2,0.7-0.2,1.3-0.2,1.8v23c0,0.5,0.1,1.1,0.2,1.8c0.2,0.7,0.5,1.4,1.1,2c0.6,0.6,1.4,1.1,2.4,1.5
		c1,0.4,2.3,0.6,4,0.6c1.8,0,3.1-0.2,4.2-0.6c1-0.4,1.9-0.9,2.5-1.5c0.6-0.6,1-1.2,1.2-1.9c0.2-0.6,0.3-1.3,0.3-1.8V67.2
		c0-0.6-0.1-1.2-0.3-1.8c-0.2-0.7-0.6-1.3-1.2-1.9c-0.6-0.6-1.4-1.1-2.5-1.5C234.2,61.5,232.8,61.3,231,61.3"/>
	<path class="st0" d="M270.3,101.6c-3,0-5.5-0.3-7.3-1c-1.8-0.7-3.3-1.5-4.3-2.5c-1-1-1.7-2.1-2.1-3.2c-0.4-1.2-0.5-2.3-0.5-3.3v-2
		h6.3c0.1,2,0.7,3.5,1.7,4.7c1.2,1.3,3.2,1.9,6.3,1.9c3,0,5-0.6,6.2-1.8c1.1-1.2,1.7-2.9,1.7-5.3c0-1.2-0.2-2.2-0.7-3
		c-0.4-0.8-0.9-1.4-1.5-1.9c-0.7-0.6-1.4-1-2.2-1.3c-1.8-0.6-3.4-1.2-4.9-1.7l-3.9-1.3c-1.3-0.4-2.2-0.7-2.8-0.9
		c-0.5-0.2-1.2-0.5-1.9-1c-0.7-0.4-1.4-1-2.1-1.7c-0.7-0.7-1.2-1.6-1.6-2.6c-0.4-1-0.7-2.2-0.7-3.5v-4.2c0-2.9,1.1-5.2,3.4-7.1
		c2.3-1.9,5.9-2.9,10.9-2.9c2.5,0,4.7,0.3,6.6,0.8c1.8,0.5,3.3,1.3,4.4,2.2c1.1,0.9,2,2,2.5,3.1c0.5,1.2,0.8,2.5,0.8,3.9v1.6h-6.4
		c-0.1-1.6-0.6-3-1.6-4.1c-1.1-1.3-3.2-2-6.3-2c-1.5,0-2.8,0.2-3.8,0.5c-1,0.3-1.9,0.8-2.5,1.4c-0.6,0.6-1.1,1.2-1.4,1.9
		c-0.3,0.7-0.4,1.3-0.4,2v1.7c0,0.8,0.2,1.5,0.4,2.1c0.3,0.6,0.6,1.1,1,1.5c0.4,0.5,0.8,0.8,1.2,1c0.4,0.2,0.7,0.4,0.9,0.5
		c0.2,0.1,0.6,0.2,1.8,0.6c0.9,0.4,2,0.7,3.3,1.2l3.9,1.3c1.3,0.5,2.5,0.9,3.6,1.2c2,0.7,3.5,1.9,4.6,3.6c1.1,1.7,1.6,3.6,1.6,5.7
		v4.1c0,1-0.2,2.1-0.5,3.3c-0.3,1.2-1,2.2-2.1,3.2c-1,1-2.5,1.8-4.3,2.5C275.7,101.3,273.3,101.6,270.3,101.6"/>
	<path class="st0" d="M309.3,101.6c-1.9,0-3.6-0.2-5-0.5c-1.4-0.3-2.6-0.7-3.7-1.2c-1-0.5-1.9-1-2.5-1.6c-0.7-0.6-1.2-1.2-1.7-1.8
		c-1-1.4-1.4-3.1-1.4-4.9l0-25.8c0-0.7,0.1-1.6,0.3-2.7c0.2-1.1,0.8-2.2,1.7-3.2c0.9-1.1,2.4-2.1,4.2-2.9c1.9-0.8,4.6-1.2,8-1.2
		c3.4,0,6.1,0.4,8,1.2c1.9,0.8,3.3,1.8,4.2,2.9c0.9,1.1,1.5,2.2,1.7,3.3c0.2,1.2,0.3,2,0.3,2.6V70c0,0.9-0.2,2-0.5,3.2
		c-0.4,1.1-1.2,2.4-2.5,3.7c-0.6,0.7-1.3,1.1-2,1.5c-0.8,0.3-1.5,0.6-2.1,0.8c-0.7,0.2-1.5,0.3-2.2,0.3h-12.8v6.1c0,0.1,0,0.1,0,0.2
		v3.9c0,1.5,0.3,2.7,0.9,3.6c0.2,0.4,0.5,0.8,0.9,1.1c0.3,0.3,0.8,0.6,1.5,0.9c0.5,0.2,1.1,0.4,1.9,0.6c0.8,0.2,1.8,0.3,2.9,0.3
		c1.6,0,2.8-0.2,3.7-0.5c0.9-0.3,1.5-0.6,1.9-0.9c0.9-0.7,1.4-1.4,1.8-2.3c0.3-0.7,0.4-1.5,0.5-2.3h6.4v1.6c0,1.5-0.3,2.9-0.9,4.1
		c-0.6,1.3-1.6,2.4-2.9,3.3c-0.9,0.7-2.3,1.3-3.9,1.8C314.1,101.4,311.9,101.6,309.3,101.6 M309.5,61.3c-1.7,0-3.1,0.2-4.1,0.6
		c-1.1,0.4-1.9,0.9-2.5,1.5c-0.6,0.6-1,1.2-1.2,1.9c-0.2,0.7-0.3,1.2-0.3,1.8v7.1h10.4c1.5,0,2.8-0.5,3.8-1.6
		c1.1-1.1,1.6-2.3,1.6-3.8v-1.6c0-0.6-0.1-1.2-0.2-1.8c-0.2-0.7-0.5-1.4-1.1-2c-0.6-0.6-1.4-1.1-2.4-1.5
		C312.4,61.5,311.1,61.3,309.5,61.3"/>
	<path class="st1" d="M350.4,101.3c-3.3,0-6-0.4-7.8-1.2c-1.8-0.8-3.2-1.7-4-2.7c-0.9-1-1.4-1.9-1.6-2.9c-0.2-1.1-0.3-2-0.3-2.5
		V47.4c0-0.6,0.1-1.4,0.3-2.5c0.2-0.9,0.7-1.9,1.6-2.9c0.9-1,2.2-1.9,4-2.7c1.8-0.8,4.5-1.2,7.8-1.2c3.3,0,6,0.4,7.8,1.2
		c1.8,0.8,3.1,1.7,4,2.7c0.8,1,1.4,2,1.5,2.9c0.2,1.1,0.3,2,0.3,2.5v0.8h-4.5c0-0.5-0.1-1-0.3-1.6c-0.3-0.9-0.8-1.7-1.6-2.5
		c-0.7-0.7-1.7-1.2-2.9-1.7c-1.2-0.5-2.7-0.7-4.7-0.7c-1.8,0-3.3,0.2-4.5,0.7c-1.2,0.5-2.2,1.1-2.9,1.9c-0.7,0.8-1.2,1.6-1.4,2.5
		c-0.2,0.7-0.3,1.5-0.3,2.1v41.7c0,0.7,0.1,1.4,0.3,2.1c0.2,0.9,0.7,1.7,1.4,2.5c0.7,0.7,1.7,1.3,2.9,1.8c1.2,0.5,2.6,0.7,4.5,0.7
		c1.9,0,3.5-0.2,4.7-0.7c1.2-0.5,2.2-1,2.9-1.7c0.8-0.7,1.3-1.6,1.5-2.5c0.2-0.5,0.3-1,0.3-1.5h4.5V92c0,0.6-0.1,1.5-0.3,2.6
		c-0.2,0.9-0.7,1.9-1.5,2.9c-0.9,1-2.2,1.9-4,2.7C356.4,100.9,353.8,101.3,350.4,101.3"/>
	<path class="st1" d="M373.2,100.7v-35c0-0.6,0.1-1.4,0.3-2.5c0.2-1,0.7-1.9,1.5-2.9c0.8-1,2.2-1.9,4-2.7c1.8-0.8,4.5-1.2,7.8-1.2
		c1,0,1.9,0,2.7,0c0.1,0,0.2,0,0.3,0l-0.9,3.6c-0.2,0-0.5,0-0.7,0c-0.4,0-1,0-1.6,0c-1.8,0-3.3,0.2-4.5,0.8
		c-1.2,0.5-2.1,1.1-2.8,1.8c-0.7,0.8-1.2,1.6-1.4,2.5c-0.2,0.7-0.3,1.4-0.3,2.1v33.4H373.2z"/>
	<path class="st1" d="M412.1,101.4c-3.3,0-6-0.4-7.8-1.2c-1.8-0.8-3.1-1.7-4-2.7c-0.8-1-1.4-2-1.5-2.9c-0.2-1.1-0.3-2-0.3-2.5V65.6
		c0-0.6,0.1-1.4,0.3-2.5c0.2-0.9,0.7-1.9,1.5-2.9c0.9-1,2.2-1.9,4-2.7c1.8-0.8,4.4-1.2,7.8-1.2c3.4,0,6,0.4,7.8,1.2
		c1.8,0.8,3.1,1.7,4,2.7c0.8,1,1.4,2,1.5,2.9c0.2,1.1,0.3,2,0.3,2.6v26.5c0,0.6-0.1,1.5-0.3,2.6c-0.2,0.9-0.7,1.9-1.5,2.9
		c-0.8,1-2.2,1.9-4,2.7C418.1,101,415.5,101.4,412.1,101.4 M411.9,59.9c-1.8,0-3.3,0.2-4.5,0.7c-1.2,0.5-2.2,1.1-2.8,1.8
		c-0.7,0.8-1.2,1.6-1.4,2.6c-0.2,0.8-0.3,1.5-0.3,2v23.6c0,0.6,0.1,1.3,0.3,2.1c0.2,0.9,0.7,1.8,1.4,2.6c0.7,0.7,1.7,1.3,2.8,1.8
		c1.2,0.5,2.6,0.7,4.5,0.7c1.9,0,3.5-0.2,4.7-0.7c1.2-0.5,2.2-1,2.9-1.7c0.8-0.7,1.3-1.6,1.5-2.5c0.2-0.8,0.3-1.5,0.3-2.2V67
		c0-0.7-0.1-1.4-0.3-2.2c-0.3-0.9-0.8-1.7-1.5-2.5c-0.7-0.7-1.7-1.2-2.9-1.7C415.3,60.2,413.8,59.9,411.9,59.9"/>
	<path class="st1" d="M449.8,101.4c-3,0-5.4-0.3-7.2-1c-1.8-0.6-3.1-1.4-4.1-2.4c-0.9-0.9-1.6-1.8-1.9-2.9c-0.3-1.1-0.5-2.2-0.5-3.1
		v-1h4.5c0.2,1.8,0.9,3.3,1.9,4.5c1.4,1.5,3.8,2.3,7.2,2.3c3.4,0,5.7-0.7,7.1-2.1c1.4-1.4,2.1-3.5,2.1-6.2c0-1.4-0.3-2.6-0.8-3.6
		c-0.5-0.9-1.1-1.7-1.8-2.2c-0.8-0.7-1.7-1.2-2.6-1.5c-1.8-0.7-3.5-1.3-5.1-1.8l-4-1.4c-1.3-0.5-2.3-0.8-2.9-1
		c-0.4-0.2-1-0.5-1.7-0.9c-0.7-0.4-1.3-0.9-1.9-1.6c-0.6-0.6-1.1-1.4-1.5-2.4c-0.4-0.9-0.6-2-0.6-3.2v-4.3c0-2.6,1-4.8,3.1-6.5
		c2.1-1.8,5.7-2.7,10.5-2.7c2.5,0,4.7,0.3,6.4,0.8c1.7,0.5,3.1,1.2,4.2,2.1c1,0.8,1.8,1.8,2.3,2.8c0.5,1.1,0.7,2.3,0.7,3.6v0.6h-4.6
		c-0.3-1.5-0.9-2.8-1.8-3.9c-1.4-1.6-3.7-2.4-7.2-2.4c-1.6,0-3.1,0.2-4.2,0.6c-1.2,0.4-2.2,0.9-2.9,1.6c-0.8,0.7-1.3,1.5-1.7,2.4
		c-0.3,0.8-0.5,1.6-0.5,2.4v1.7c0,1,0.2,1.8,0.6,2.6c0.3,0.7,0.7,1.2,1.2,1.8c0.5,0.6,1,1,1.6,1.3c0.4,0.2,0.7,0.4,1,0.5l0.2,0.1
		l0.1,0c0,0,0.3,0.1,1.6,0.6c1,0.4,2.1,0.8,3.4,1.2l4,1.4c1.4,0.5,2.6,0.9,3.7,1.3c1.8,0.7,3.2,1.7,4.1,3.3c1,1.6,1.5,3.4,1.5,5.3
		v4.2c0,0.9-0.2,2-0.5,3.1c-0.3,1-0.9,2-1.9,2.9c-1,0.9-2.4,1.7-4.1,2.4C455.2,101.1,452.8,101.4,449.8,101.4"/>
	<path class="st1" d="M486.3,101.4c-3,0-5.4-0.3-7.2-1c-1.8-0.6-3.1-1.4-4.1-2.4c-0.9-0.9-1.6-1.8-1.9-2.9c-0.3-1.1-0.5-2.2-0.5-3.1
		v-1h4.5c0.2,1.8,0.9,3.3,1.9,4.5c1.4,1.5,3.8,2.3,7.2,2.3c3.4,0,5.7-0.7,7.1-2.1c1.4-1.4,2.1-3.5,2.1-6.2c0-1.4-0.3-2.6-0.8-3.6
		c-0.5-0.9-1.1-1.7-1.8-2.2c-0.8-0.7-1.7-1.2-2.6-1.5c-1.8-0.7-3.5-1.3-5.1-1.8l-4-1.4c-1.3-0.5-2.3-0.8-2.9-1
		c-0.4-0.2-1-0.5-1.7-0.9c-0.7-0.4-1.3-0.9-1.9-1.6c-0.6-0.6-1.1-1.4-1.5-2.4c-0.4-0.9-0.6-2-0.6-3.2v-4.3c0-2.6,1-4.8,3.1-6.5
		c2.1-1.8,5.7-2.7,10.5-2.7c2.5,0,4.7,0.3,6.4,0.8c1.7,0.5,3.1,1.2,4.2,2.1c1,0.8,1.8,1.8,2.3,2.8c0.5,1.1,0.7,2.3,0.7,3.6v0.6h-4.6
		c-0.3-1.5-0.9-2.8-1.8-3.9c-1.4-1.6-3.7-2.4-7.2-2.4c-1.6,0-3.1,0.2-4.2,0.6c-1.2,0.4-2.2,0.9-2.9,1.6c-0.8,0.7-1.3,1.5-1.7,2.4
		c-0.3,0.8-0.5,1.6-0.5,2.4v1.7c0,1,0.2,1.8,0.6,2.6c0.3,0.7,0.7,1.2,1.2,1.8c0.5,0.6,1,1,1.6,1.3c0.4,0.2,0.7,0.4,1,0.5l0.2,0.1
		l0.1,0c0,0,0.3,0.1,1.6,0.6c1,0.4,2.1,0.8,3.4,1.2l4,1.4c1.4,0.5,2.6,0.9,3.7,1.3c1.8,0.7,3.2,1.7,4.1,3.3c1,1.6,1.5,3.4,1.5,5.3
		v4.2c0,0.9-0.2,2-0.5,3.1c-0.3,1-0.9,2-1.9,2.9c-1,0.9-2.4,1.7-4.1,2.4C491.7,101.1,489.3,101.4,486.3,101.4"/>
	<path class="st0" d="M95.4,89.2l-34.9,20.1L26.3,89.6V50.1l4.9-2.8c1.9,1.9,4.5,3,7.3,3c5.8,0,10.5-4.7,10.5-10.5
		c0-5.8-4.7-10.5-10.5-10.5C32.7,29.3,28,34,28,39.8c0,0.9,0.1,1.8,0.3,2.6l-7.7,4.4v46l39.8,23l40.3-23.3L95.4,89.2z M38.5,33.9
		c3.2,0,5.9,2.6,5.9,5.9c0,3.2-2.6,5.9-5.9,5.9c-3.2,0-5.9-2.6-5.9-5.9C32.6,36.5,35.3,33.9,38.5,33.9"/>
	<path class="st0" d="M60.5,30.3l33.6,19.4l5.7-3.1L60.5,23.9L49.8,30c1.2,1.4,2.2,3.1,2.8,4.9L60.5,30.3z"/>
	<polygon class="st1" points="74.8,76.8 60.5,85.1 47.3,77.5 47.3,62.2 60.5,54.6 72.4,61.5 77.9,58.5 60.5,48.4 42,59.1 42,80.5 
		60.5,91.2 80,80 	"/>
	<path class="st1" d="M121,34.9L60.5,0L0,34.9l5.6,3.2L60.5,6.5L109.9,35l-8.7,5.2l5.1,2.9l9.1-5l0.1,0v63.4l-7,4.1
		c-1.9-1.9-4.5-3.1-7.4-3.1c-5.8,0-10.5,4.7-10.5,10.5c0,5.8,4.7,10.5,10.5,10.5c5.8,0,10.5-4.7,10.5-10.5c0-0.9-0.1-1.7-0.3-2.5
		l9.9-5.7V34.9z M101,118.9c-3.2,0-5.9-2.6-5.9-5.9c0-3.2,2.6-5.9,5.9-5.9c3.2,0,5.9,2.6,5.9,5.9C106.8,116.3,104.2,118.9,101,118.9
		"/>
	<path class="st1" d="M87,117.9l-26.5,15.3l-49.4-28.5l8.8-5.1l-5.6-3.2L0,104.8l60.5,34.9l29.3-16.9
		C88.6,121.4,87.6,119.7,87,117.9"/>
	<path class="st2" d="M101,107.1c3.2,0,5.9,2.6,5.9,5.9c0,3.2-2.6,5.9-5.9,5.9c-3.2,0-5.9-2.6-5.9-5.9
		C95.1,109.8,97.7,107.1,101,107.1"/>
	<path class="st2" d="M38.5,33.9c3.2,0,5.9,2.6,5.9,5.9c0,3.2-2.6,5.9-5.9,5.9c-3.2,0-5.9-2.6-5.9-5.9
		C32.6,36.5,35.3,33.9,38.5,33.9"/>
</g>
</svg>
